<?xml version="1.0" encoding="utf-8"?>
<!-- Generator: Adobe Illustrator 19.0.0, SVG Export Plug-In . SVG Version: 6.00 Build 0)  -->
<svg version="1.1" id="Layer_1" xmlns="http://www.w3.org/2000/svg" xmlns:xlink="http://www.w3.org/1999/xlink" x="0px" y="0px"
	 viewBox="-97 64.7 18 12" style="enable-background:new -97 64.7 18 12;" xml:space="preserve">
<style type="text/css">
	.st0{fill:#3E9D00;}
</style>
<g transform="matrix(-1 0 0 1 18 0)">
	<path class="st0" d="M111.9,70.7l-4.6,4.4c-0.4,0.4-0.4,1,0,1.3s1,0.3,1.4,0l5.3-5.1c0.4-0.4,0.4-0.9,0-1.3l-5.3-5.1
		c-0.4-0.4-1-0.4-1.4,0s-0.4,0.9,0,1.3L111.9,70.7z"/>
	<path class="st0" d="M112.1,69.7H97.9c-0.5,0-0.9,0.4-0.9,1c0,0.6,0.4,1,0.9,1h14.2c0.5,0,0.9-0.4,0.9-1
		C113,70.2,112.6,69.7,112.1,69.7z"/>
</g>
</svg>
