<?xml version="1.0" encoding="utf-8"?>
<!-- Generator: Adobe Illustrator 19.0.0, SVG Export Plug-In . SVG Version: 6.00 Build 0)  -->
<svg version="1.1" id="Layer_1" xmlns="http://www.w3.org/2000/svg" xmlns:xlink="http://www.w3.org/1999/xlink" x="0px" y="0px"
	 viewBox="0 0 141.7 141.7" style="enable-background:new 0 0 141.7 141.7;" xml:space="preserve">
<style type="text/css">
	.st0{fill:#3F9E46;}
</style>
<g>
	<path class="st0" d="M83.6,4.7c1.9,0,3.2,1,3.8,3c1.8,5.7,3.5,11.5,5.3,17.2c2.5,8.3,5.1,16.6,7.6,24.9c0.3,1,0.8,1.5,1.7,1.9
		c11,4,22,8.1,33,12.2c0.4,0.2,0.8,0.3,1.2,0.5c1.7,0.6,2.7,1.8,2.8,3.7c0.1,1.7-0.9,3.1-2.9,3.8c-4.2,1.6-8.4,3.1-12.5,4.7
		c-7.2,2.7-14.5,5.4-21.7,8c-0.9,0.3-1.4,0.9-1.6,1.8c-4.2,14.2-8.4,28.3-12.6,42.5c-0.1,0.3-0.2,0.7-0.3,1c-0.6,2-1.9,3-3.7,3.1
		c-1.9,0-3.3-1-3.9-3.1c-1.8-6-3.5-12-5.3-18c-2.5-8.5-5.1-17-7.5-25.5c-0.3-0.9-0.7-1.5-1.6-1.8C54.2,80.4,43.1,76.3,32,72.2
		c-0.2-0.1-0.5-0.2-0.7-0.3c-2.1-0.8-3.2-2.1-3.1-3.9c0-1.7,1.1-3.1,3.1-3.8c7.4-2.7,14.8-5.5,22.2-8.2c3.9-1.4,7.7-2.9,11.6-4.3
		c1-0.4,1.5-0.9,1.9-1.9C71.2,35.9,75.5,22,79.7,8.1C80.4,5.8,81.6,4.7,83.6,4.7z"/>
	<path class="st0" d="M39.4,89c1.9,0,3.3,1.1,3.9,3.2c1.1,3.8,2.1,7.7,3.1,11.5c0.3,1,0.7,1.6,1.8,2c2.6,0.8,5.1,1.8,7.6,2.8
		c1.9,0.7,2.8,2,2.8,3.8c0,1.8-0.9,3-2.8,3.8c-2.6,1-5.3,1.9-7.9,3c-0.6,0.2-1.2,0.9-1.3,1.5c-1.2,4.3-2.2,8.6-3.3,13
		c-0.8,3-3.5,4.5-5.8,2.9c-1-0.7-1.8-2-2.1-3.1c-1.1-4-2.1-8.1-3-12.1c-0.3-1.3-0.8-2-2.1-2.4c-2.4-0.7-4.6-1.7-7-2.5
		c-2.3-0.8-3.2-2-3.2-4c0-1.9,0.9-3,3.1-3.9c2.4-0.9,4.8-1.8,7.2-2.7c1.1-0.4,1.6-0.9,1.9-2.1c1-3.9,2.1-7.8,3.2-11.6
		C36.2,90.1,37.6,89,39.4,89z"/>
	<path class="st0" d="M21.4,44.6c-1.4-0.1-2.6-1.1-3.2-2.8c-1-2.6-2-5.2-2.9-7.8c-0.4-1.1-0.9-1.7-2-2c-2.6-0.9-5.2-1.9-7.8-2.9
		c-1.9-0.7-2.9-2-2.9-3.8c0-1.8,0.9-3.1,2.8-3.8c2.6-1,5.3-2,7.9-2.9c0.9-0.3,1.5-0.8,1.8-1.8c0.9-2.6,1.9-5.2,2.9-7.8
		c0.7-2,2.1-3,3.8-3c1.7,0,3.1,1,3.9,3c1,2.6,2,5.3,2.9,7.9c0.3,0.8,0.7,1.3,1.6,1.6c2.6,0.9,5.2,1.9,7.8,2.9
		c2.1,0.8,3.2,2.1,3.2,3.9c0,1.8-1,3.1-3.1,3.9c-2.5,1-5.1,1.9-7.6,2.8c-1,0.3-1.6,1-1.9,1.9c-0.9,2.6-1.9,5.3-2.9,7.9
		C25,43.7,23.7,44.6,21.4,44.6z"/>
</g>
</svg>
