<?xml version="1.0" encoding="utf-8"?>
<!-- Generator: Adobe Illustrator 19.0.0, SVG Export Plug-In . SVG Version: 6.00 Build 0)  -->
<svg version="1.1" id="Layer_1_1_" xmlns="http://www.w3.org/2000/svg" xmlns:xlink="http://www.w3.org/1999/xlink" x="0px" y="0px"
	 viewBox="-96 67.7 19.3 6" style="enable-background:new -96 67.7 19.3 6;" xml:space="preserve">
<style type="text/css">
	.st0{fill:#FF88D2;}
</style>
<path class="st0" d="M-101.5,71.5c1.3,1,2.7,2.2,5.5,2.2s4.2-1.2,5.5-2.2c1.1-1,2.1-1.8,4.2-1.8s3,0.8,4.2,1.8
	c1.3,1,2.7,2.2,5.5,2.2s4.2-1.2,5.5-2.2l-1.4-1.6c-1.1,1-2.1,1.8-4.2,1.8s-3-0.8-4.2-1.8s-2.7-2.2-5.4-2.2c-2.8,0-4.2,1.2-5.5,2.2
	c-1.2,1-2.1,1.8-4.2,1.8s-3-0.8-4.2-1.8L-101.5,71.5z"/>
</svg>
